# xmcd
#
# Track frame offsets: 
#        150
#        15300
#        35924
#        57643
#        70880
#        87448
#        107215
#        123360
#        138395
#        151495
#        170265
#        182332
#        197367
#        207606
#
# Disc length: 3016 seconds
#
# Revision: 0
# Processed by: cddbd v1.5.2PL0 Copyright (c) Steve Scherf et al.
# Submitted via: ExactAudioCopyFreeDBPlugin 1.0
#
DISCID=c40bc60e
DTITLE=Tin Men - Avocado Woo Woo
DYEAR=2013
DGENRE=Other
TTITLE0=Jesus Always Gets His Man
TTITLE1=Swerve
TTITLE2=Turn My Lights Back On
TTITLE3=What Tano-San Say
TTITLE4=Avocado Woo Woo
TTITLE5=I Got A Guy
TTITLE6=Why Don't You Haul Off And Love Me
TTITLE7=Lonely One In This Town
TTITLE8=Signed, Sealed, Delivered I'm Yours
TTITLE9=Livin' And Lovin' On The Westbank
TTITLE10=Maybellene
TTITLE11=I've Got Blood In My Eyes For You
TTITLE12=Lies
TTITLE13=If You Can't Make It Here
EXTD=
EXTT0=
EXTT1=
EXTT2=
EXTT3=
EXTT4=
EXTT5=
EXTT6=
EXTT7=
EXTT8=
EXTT9=
EXTT10=
EXTT11=
EXTT12=
EXTT13=
PLAYORDER=
